<?xml version="1.0" encoding="UTF-8" standalone="no"?>
<svg
   xmlns:dc="http://purl.org/dc/elements/1.1/"
   xmlns:cc="http://creativecommons.org/ns#"
   xmlns:rdf="http://www.w3.org/1999/02/22-rdf-syntax-ns#"
   xmlns:svg="http://www.w3.org/2000/svg"
   xmlns="http://www.w3.org/2000/svg"
   xmlns:sodipodi="http://sodipodi.sourceforge.net/DTD/sodipodi-0.dtd"
   xmlns:inkscape="http://www.inkscape.org/namespaces/inkscape"
   width="192.11111mm"
   height="192.11111mm"
   viewBox="0 0 192.11111 192.11111"
   version="1.1"
   id="svg71"
   inkscape:version="1.0 (4035a4fb49, 2020-05-01)"
   sodipodi:docname="logo-alternate.svg">
  <defs
     id="defs65" />
  <sodipodi:namedview
     id="base"
     pagecolor="#ffffff"
     bordercolor="#666666"
     borderopacity="1.0"
     inkscape:pageopacity="0.0"
     inkscape:pageshadow="2"
     inkscape:zoom="0.35"
     inkscape:cx="1047.5492"
     inkscape:cy="407.00378"
     inkscape:document-units="mm"
     inkscape:current-layer="layer1"
     inkscape:document-rotation="0"
     showgrid="false"
     fit-margin-top="0"
     fit-margin-left="0"
     fit-margin-right="0"
     fit-margin-bottom="0"
     inkscape:window-width="1507"
     inkscape:window-height="940"
     inkscape:window-x="165"
     inkscape:window-y="41"
     inkscape:window-maximized="0" />
  <metadata
     id="metadata68">
    <rdf:RDF>
      <cc:Work
         rdf:about="">
        <dc:format>image/svg+xml</dc:format>
        <dc:type
           rdf:resource="http://purl.org/dc/dcmitype/StillImage" />
        <dc:title />
      </cc:Work>
    </rdf:RDF>
  </metadata>
  <g
     inkscape:label="Capa 1"
     inkscape:groupmode="layer"
     id="layer1"
     transform="translate(-10.475827,-40.480251)">
    <rect
       style="fill:#171717;stroke:#171717;stroke-width:0.1;fill-opacity:1"
       id="rect103"
       width="192.01111"
       height="192.01111"
       x="10.525827"
       y="40.530251"
       ry="26.948076" />
    <g
       transform="translate(-53.313858,128.83645)"
       id="revdevlogo-alternate-3"
       inkscape:export-xdpi="300"
       inkscape:export-ydpi="300">
      <ellipse
         ry="16.783035"
         rx="16.783012"
         cy="10.786256"
         cx="168.22383"
         id="Circle-alternate-6"
         style="fill:#de756a;fill-opacity:1;fill-rule:nonzero;stroke-width:0.237869" />
      <g
         id="revdev-alternate-7">
        <path
           d="m 99.509764,-1.787784 v 5.1337159 h -2.595699 q -1.615102,0 -3.057157,0.6345042 -1.384372,0.576822 -2.480334,1.6727839 -1.03828,1.0382796 -1.672784,2.4803346 -0.576822,1.3843729 -0.576822,2.9994744 V 24.111524 H 83.93557 V 11.133029 q 0,-2.7110634 0.980597,-5.0183514 1.03828,-2.3649703 2.826428,-4.0954363 1.788148,-1.78814826 4.153119,-2.76874568 2.36497,-1.03827962 5.018351,-1.03827962 z"
           style="font-style:normal;font-variant:normal;font-weight:normal;font-stretch:normal;font-size:57.6822px;line-height:1.25;font-family:REZ;-inkscape-font-specification:REZ;fill:#ffffff;fill-opacity:1;stroke-width:0.901286"
           id="path73-5" />
        <path
           d="m 121.31361,14.997737 3.63398,3.633978 -1.78815,1.788149 q -1.84583,1.84583 -4.2108,2.826427 -2.36497,0.980598 -4.96067,0.980598 -2.5957,0 -4.96067,-0.980598 -2.36497,-0.980597 -4.2108,-2.826427 -1.90351,-1.903513 -2.82643,-4.268483 -0.92291,-2.422653 -0.92291,-4.902987 0,-2.4803352 0.92291,-4.8453054 0.92292,-2.3649703 2.82643,-4.2684829 1.90351,-1.90351266 4.26848,-2.82642788 2.42265,-0.98059742 4.90299,-0.98059742 2.48033,0 4.8453,0.98059742 2.42266,0.92291522 4.32617,2.82642788 l 1.78815,1.7881482 -14.36287,14.3628681 q 2.19192,1.095962 4.61458,0.749869 2.48033,-0.403776 4.32616,-2.249606 z M 108.45048,5.7109022 q -2.30729,2.307288 -2.30729,5.5374918 0,1.788148 0.80755,3.403249 0.69219,-0.692186 2.07656,-2.076559 1.44205,-1.442055 2.99947,-2.9994743 1.61511,-1.6151017 3.05716,-3.0571567 1.49974,-1.442055 2.30729,-2.2496059 -2.19192,-1.0959618 -4.67226,-0.7498686 -2.42265,0.3460932 -4.26848,2.1919237 z"
           style="font-style:normal;font-variant:normal;font-weight:normal;font-stretch:normal;font-size:57.6822px;line-height:1.25;font-family:REZ;-inkscape-font-specification:REZ;fill:#ffffff;fill-opacity:1;stroke-width:0.901286"
           id="path75-3" />
        <path
           d="M 153.73099,-1.9031484 140.23335,24.053842 126.7934,-1.9031484 h 5.76822 q 0.80755,1.55741943 1.84583,3.5762965 1.03828,1.9611948 2.07656,4.0377541 1.03828,2.018877 2.01888,3.9223897 1.03828,1.9035131 1.73046,3.2878851 0.86524,-1.672783 1.9612,-3.8070249 1.15364,-2.1919237 2.2496,-4.3261651 1.09597,-2.1342415 2.01888,-3.92238974 0.92292,-1.84583044 1.44206,-2.76874566 z"
           style="font-style:normal;font-variant:normal;font-weight:normal;font-stretch:normal;font-size:57.6822px;line-height:1.25;font-family:REZ;-inkscape-font-specification:REZ;fill:#ffffff;fill-opacity:1;stroke-width:0.901286"
           id="path77-5" />
        <path
           d="m 181.24531,-12.17058 v 23.303609 q 0,2.653381 -1.03828,5.018352 -0.9806,2.36497 -2.76875,4.153118 -1.73047,1.788148 -4.09544,2.826428 -2.36497,0.980597 -5.01835,0.980597 -2.65338,0 -5.01835,-0.980597 -2.36497,-1.03828 -4.15312,-2.826428 -1.78815,-1.788148 -2.82643,-4.153118 -0.98059,-2.364971 -0.98059,-5.018352 0,-2.7110634 0.98059,-5.0183514 1.03828,-2.3649703 2.82643,-4.0954363 1.78815,-1.78814826 4.15312,-2.76874568 2.36497,-1.03827962 5.01835,-1.03827962 h 7.7871 V -12.17058 Z m -12.92082,31.148388 q 1.6151,0 2.99948,-0.576822 1.44205,-0.634504 2.48033,-1.672783 1.09596,-1.095962 1.67279,-2.538017 0.6345,-1.442055 0.6345,-3.057157 V 3.3459319 h -7.7871 q -1.6151,0 -3.05715,0.6345042 -1.44206,0.576822 -2.53802,1.6727839 -1.03828,1.0382796 -1.67279,2.4803346 -0.57682,1.3843729 -0.57682,2.9994744 0,1.615102 0.57682,3.057157 0.63451,1.442055 1.67279,2.538017 1.09596,1.038279 2.53802,1.672783 1.44205,0.576822 3.05715,0.576822 z"
           style="font-style:normal;font-variant:normal;font-weight:normal;font-stretch:normal;font-size:57.6822px;line-height:1.25;font-family:REZ;-inkscape-font-specification:REZ;fill:#ffffff;fill-opacity:1;stroke-width:0.901286"
           id="path79-6" />
        <path
           d="m 203.33753,14.997737 3.63398,3.633978 -1.78815,1.788149 q -1.84583,1.84583 -4.2108,2.826427 -2.36497,0.980598 -4.96067,0.980598 -2.5957,0 -4.96067,-0.980598 -2.36497,-0.980597 -4.2108,-2.826427 -1.90351,-1.903513 -2.82643,-4.268483 -0.92291,-2.422653 -0.92291,-4.902987 0,-2.4803352 0.92291,-4.8453054 0.92292,-2.3649703 2.82643,-4.2684829 1.90351,-1.90351266 4.26848,-2.82642788 2.42265,-0.98059742 4.90299,-0.98059742 2.48033,0 4.8453,0.98059742 2.42266,0.92291522 4.32617,2.82642788 l 1.78815,1.7881482 -14.36287,14.3628681 q 2.19192,1.095962 4.61458,0.749869 2.48033,-0.403776 4.32616,-2.249606 z M 190.4744,5.7109022 q -2.30729,2.307288 -2.30729,5.5374918 0,1.788148 0.80755,3.403249 0.69219,-0.692186 2.07656,-2.076559 1.44205,-1.442055 2.99947,-2.9994743 1.61511,-1.6151017 3.05716,-3.0571567 1.49974,-1.442055 2.30729,-2.2496059 -2.19192,-1.0959618 -4.67226,-0.7498686 -2.42265,0.3460932 -4.26848,2.1919237 z"
           style="font-style:normal;font-variant:normal;font-weight:normal;font-stretch:normal;font-size:57.6822px;line-height:1.25;font-family:REZ;-inkscape-font-specification:REZ;fill:#ffffff;fill-opacity:1;stroke-width:0.901286"
           id="path81-2" />
        <path
           d="M 235.75491,-1.9031484 222.25728,24.053842 208.81732,-1.9031484 h 5.76822 q 0.80755,1.55741943 1.84583,3.5762965 1.03828,1.9611948 2.07656,4.0377541 1.03828,2.018877 2.01888,3.9223897 1.03828,1.9035131 1.73047,3.2878851 0.86523,-1.672783 1.96119,-3.8070249 1.15364,-2.1919237 2.24961,-4.3261651 1.09596,-2.1342415 2.01887,-3.92238974 0.92292,-1.84583044 1.44206,-2.76874566 z"
           style="font-style:normal;font-variant:normal;font-weight:normal;font-stretch:normal;font-size:57.6822px;line-height:1.25;font-family:REZ;-inkscape-font-specification:REZ;fill:#ffffff;fill-opacity:1;stroke-width:0.901286"
           id="path83-9" />
      </g>
    </g>
  </g>
</svg>
