<?xml version="1.0" encoding="UTF-8" standalone="no"?>
<svg
   xmlns:dc="http://purl.org/dc/elements/1.1/"
   xmlns:cc="http://creativecommons.org/ns#"
   xmlns:rdf="http://www.w3.org/1999/02/22-rdf-syntax-ns#"
   xmlns:svg="http://www.w3.org/2000/svg"
   xmlns="http://www.w3.org/2000/svg"
   xmlns:sodipodi="http://sodipodi.sourceforge.net/DTD/sodipodi-0.dtd"
   xmlns:inkscape="http://www.inkscape.org/namespaces/inkscape"
   sodipodi:docname="logo.svg"
   inkscape:version="1.0 (4035a4fb49, 2020-05-01)"
   id="svg71"
   version="1.1"
   viewBox="0 0 192.11111 192.11111"
   height="192.11111mm"
   width="192.11111mm"
   inkscape:export-filename="/datos/Develop/Projects/Brand/logo.png"
   inkscape:export-xdpi="52.886063"
   inkscape:export-ydpi="52.886063">
  <defs
     id="defs65" />
  <sodipodi:namedview
     inkscape:window-maximized="1"
     inkscape:window-y="27"
     inkscape:window-x="0"
     inkscape:window-height="1025"
     inkscape:window-width="1920"
     fit-margin-bottom="0"
     fit-margin-right="0"
     fit-margin-left="0"
     fit-margin-top="0"
     showgrid="false"
     inkscape:document-rotation="0"
     inkscape:current-layer="layer1"
     inkscape:document-units="mm"
     inkscape:cy="407.00378"
     inkscape:cx="194.69203"
     inkscape:zoom="0.35"
     inkscape:pageshadow="2"
     inkscape:pageopacity="0.0"
     borderopacity="1.0"
     bordercolor="#666666"
     pagecolor="#ffffff"
     id="base" />
  <metadata
     id="metadata68">
    <rdf:RDF>
      <cc:Work
         rdf:about="">
        <dc:format>image/svg+xml</dc:format>
        <dc:type
           rdf:resource="http://purl.org/dc/dcmitype/StillImage" />
        <dc:title />
      </cc:Work>
    </rdf:RDF>
  </metadata>
  <g
     transform="translate(-10.475827,-40.480251)"
     id="layer1"
     inkscape:groupmode="layer"
     inkscape:label="Capa 1">
    <rect
       ry="26.948076"
       y="40.530251"
       x="10.525827"
       height="192.01111"
       width="192.01111"
       id="rect103"
       style="fill:#ffffff;stroke:#171717;stroke-width:0.1" />
    <g
       inkscape:export-ydpi="300"
       inkscape:export-xdpi="300"
       id="revdevlogo-2"
       transform="translate(135.39419,128.83645)">
      <ellipse
         ry="16.783035"
         rx="16.783012"
         cy="10.786256"
         cx="-20.484222"
         id="CIrcle-9"
         style="fill:#de756a;fill-opacity:1;fill-rule:nonzero;stroke-width:0.237869;image-rendering:optimizeQuality" />
      <g
         id="revdev-1">
        <path
           id="path43-2"
           style="font-style:normal;font-variant:normal;font-weight:normal;font-stretch:normal;font-size:57.6822px;line-height:1.25;font-family:REZ;-inkscape-font-specification:REZ;fill:#171717;fill-opacity:1;stroke:none;stroke-width:0.1;stroke-miterlimit:4;stroke-dasharray:none;stroke-opacity:1"
           d="m -89.198282,-1.787784 v 5.1337159 h -2.595699 q -1.615102,0 -3.057157,0.6345042 -1.384372,0.576822 -2.480334,1.6727839 -1.03828,1.0382796 -1.672784,2.4803346 -0.576822,1.3843729 -0.576822,2.9994744 v 12.978495 h -5.191402 V 11.133029 q 0,-2.7110634 0.9806,-5.0183514 1.03828,-2.3649703 2.82643,-4.0954363 1.788147,-1.78814826 4.153118,-2.76874568 2.36497,-1.03827962 5.018351,-1.03827962 z" />
        <path
           id="path45-7"
           style="font-style:normal;font-variant:normal;font-weight:normal;font-stretch:normal;font-size:57.6822px;line-height:1.25;font-family:REZ;-inkscape-font-specification:REZ;fill:#171717;fill-opacity:1;stroke:none;stroke-width:0.1;stroke-miterlimit:4;stroke-dasharray:none;stroke-opacity:1"
           d="m -67.394437,14.997737 3.633978,3.633978 -1.788148,1.788149 q -1.84583,1.84583 -4.210801,2.826427 -2.36497,0.980598 -4.960669,0.980598 -2.595699,0 -4.960669,-0.980598 -2.36497,-0.980597 -4.210801,-2.826427 -1.903513,-1.903513 -2.826428,-4.268483 -0.922915,-2.422653 -0.922915,-4.902987 0,-2.4803352 0.922915,-4.8453054 0.922915,-2.3649703 2.826428,-4.2684829 1.903513,-1.90351266 4.268483,-2.82642788 2.422652,-0.98059742 4.902987,-0.98059742 2.480335,0 4.845305,0.98059742 2.422653,0.92291522 4.326165,2.82642788 l 1.788148,1.7881482 -14.362868,14.3628681 q 2.191924,1.095962 4.614576,0.749869 2.480335,-0.403776 4.326165,-2.249606 z M -80.257568,5.7109022 q -2.307288,2.307288 -2.307288,5.5374918 0,1.788148 0.807551,3.403249 0.692186,-0.692186 2.076559,-2.076559 1.442055,-1.442055 2.999474,-2.9994743 1.615102,-1.6151017 3.057157,-3.0571567 1.499737,-1.442055 2.307288,-2.2496059 -2.191924,-1.0959618 -4.672258,-0.7498686 -2.422653,0.3460932 -4.268483,2.1919237 z" />
        <path
           id="path47-0"
           style="font-style:normal;font-variant:normal;font-weight:normal;font-stretch:normal;font-size:57.6822px;line-height:1.25;font-family:REZ;-inkscape-font-specification:REZ;fill:#171717;fill-opacity:1;stroke:none;stroke-width:0.1;stroke-miterlimit:4;stroke-dasharray:none;stroke-opacity:1"
           d="M -34.977058,-1.9031484 -48.474693,24.053842 -61.914646,-1.9031484 h 5.76822 q 0.807551,1.55741943 1.845831,3.5762965 1.038279,1.9611948 2.076559,4.0377541 1.03828,2.018877 2.018877,3.9223897 1.03828,1.9035131 1.730466,3.2878851 0.865233,-1.672783 1.961195,-3.8070249 1.153644,-2.1919237 2.249606,-4.3261651 1.095962,-2.1342415 2.018877,-3.92238974 0.922915,-1.84583044 1.442055,-2.76874566 z" />
        <path
           id="path49-9"
           style="font-style:normal;font-variant:normal;font-weight:normal;font-stretch:normal;font-size:57.6822px;line-height:1.25;font-family:REZ;-inkscape-font-specification:REZ;fill:#171717;fill-opacity:1;stroke:none;stroke-width:0.1;stroke-miterlimit:4;stroke-dasharray:none;stroke-opacity:1"
           d="m -7.4627405,-12.17058 v 23.303609 q 0,2.653381 -1.0382796,5.018352 -0.9805975,2.36497 -2.7687459,4.153118 -1.730466,1.788148 -4.095436,2.826428 -2.36497,0.980597 -5.018352,0.980597 -2.653381,0 -5.018351,-0.980597 -2.36497,-1.03828 -4.153119,-2.826428 -1.788148,-1.788148 -2.826428,-4.153118 -0.980597,-2.364971 -0.980597,-5.018352 0,-2.7110634 0.980597,-5.0183514 1.03828,-2.3649703 2.826428,-4.0954363 1.788149,-1.78814826 4.153119,-2.76874568 2.36497,-1.03827962 5.018351,-1.03827962 h 7.787098 V -12.17058 Z M -20.383554,18.977808 q 1.615102,0 2.999475,-0.576822 1.442055,-0.634504 2.480335,-1.672783 1.095961,-1.095962 1.672783,-2.538017 0.634505,-1.442055 0.634505,-3.057157 V 3.3459319 h -7.787098 q -1.615101,0 -3.057156,0.6345042 -1.442055,0.576822 -2.538017,1.6727839 -1.03828,1.0382796 -1.672784,2.4803346 -0.576822,1.3843729 -0.576822,2.9994744 0,1.615102 0.576822,3.057157 0.634504,1.442055 1.672784,2.538017 1.095962,1.038279 2.538017,1.672783 1.442055,0.576822 3.057156,0.576822 z" />
        <path
           id="path51-3"
           style="font-style:normal;font-variant:normal;font-weight:normal;font-stretch:normal;font-size:57.6822px;line-height:1.25;font-family:REZ;-inkscape-font-specification:REZ;fill:#171717;fill-opacity:1;stroke:none;stroke-width:0.1;stroke-miterlimit:4;stroke-dasharray:none;stroke-opacity:1"
           d="m 14.629483,14.997737 3.633978,3.633978 -1.788148,1.788149 q -1.84583,1.84583 -4.2108,2.826427 -2.3649707,0.980598 -4.9606698,0.980598 -2.5956991,0 -4.9606693,-0.980598 -2.36497026,-0.980597 -4.2108007,-2.826427 -1.9035127,-1.903513 -2.8264279,-4.268483 -0.9229152,-2.422653 -0.9229152,-4.902987 0,-2.4803352 0.9229152,-4.8453054 0.9229152,-2.3649703 2.8264279,-4.2684829 1.90351264,-1.90351266 4.2684829,-2.82642788 2.4226525,-0.98059742 4.9029871,-0.98059742 2.4803347,0 4.8453048,0.98059742 2.422653,0.92291522 4.326165,2.82642788 L 18.263461,3.9227539 3.9005933,18.285622 q 2.1919237,1.095962 4.6145761,0.749869 2.4803346,-0.403776 4.3261656,-2.249606 z M 1.7663519,5.7109022 q -2.30728808,2.307288 -2.30728808,5.5374918 0,1.788148 0.80755082,3.403249 Q 0.95880106,13.959457 2.3431739,12.575084 3.7852289,11.133029 5.3426484,9.5756097 6.95775,7.960508 8.399805,6.518453 9.8995423,5.076398 10.707093,4.2688471 8.5151694,3.1728853 6.0348348,3.5189785 3.6121823,3.8650717 1.7663519,5.7109022 Z" />
        <path
           id="path53-6"
           style="font-style:normal;font-variant:normal;font-weight:normal;font-stretch:normal;font-size:57.6822px;line-height:1.25;font-family:REZ;-inkscape-font-specification:REZ;fill:#171717;fill-opacity:1;stroke:none;stroke-width:0.1;stroke-miterlimit:4;stroke-dasharray:none;stroke-opacity:1"
           d="M 47.046864,-1.9031484 33.549229,24.053842 20.109276,-1.9031484 h 5.76822 q 0.807551,1.55741943 1.845831,3.5762965 1.038279,1.9611948 2.076559,4.0377541 1.03828,2.018877 2.018877,3.9223897 1.03828,1.9035131 1.730466,3.2878851 0.865233,-1.672783 1.961195,-3.8070249 1.153644,-2.1919237 2.249606,-4.3261651 1.095962,-2.1342415 2.018877,-3.92238974 0.922915,-1.84583044 1.442055,-2.76874566 z" />
      </g>
    </g>
  </g>
</svg>
