<?xml version="1.0" encoding="utf-8"?>
<!-- Generator: Adobe Illustrator 25.0.1, SVG Export Plug-In . SVG Version: 6.00 Build 0)  -->
<svg version="1.1" id="svg71" xmlns="http://www.w3.org/2000/svg" xmlns:xlink="http://www.w3.org/1999/xlink" x="0px" y="0px"
	 viewBox="0 0 1638.5 385.2" style="enable-background:new 0 0 1638.5 385.2;" xml:space="preserve">
<style type="text/css">
	.st0{fill:#FFFFFF;}
	.st1{fill:#FF3366;stroke:#FF3366;stroke-miterlimit:10;}
</style>
<path id="path43" class="st0" d="M167.5,107.3v53.3h-27.6c-11.2-0.1-22.3,2.3-32.5,6.9c-9.9,4.2-18.9,10.4-26.4,18.1
	c-7.5,7.8-13.6,16.9-17.8,26.8c-4.2,10.3-6.2,21.3-6.1,32.4v140.4H0V245.9c-0.6-36.9,14.3-72.3,40.9-97.8
	c12.8-12.8,28-22.9,44.7-29.7c17-7.4,35.4-11.2,54-11.1H167.5z"/>
<path id="path45" class="st0" d="M403.7,285.6l39.2,39.2l-19.3,19.3c-54.3,54.7-142.6,54.9-197.3,0.6c-0.2-0.2-0.4-0.4-0.6-0.6
	C212.4,331,202,315.4,195.2,298c-6.5-16.9-9.9-34.8-10-52.9c0-17.9,3.4-35.6,10-52.3c14.1-34.8,41.7-62.5,76.5-76.5
	c16.8-6.9,34.7-10.5,52.9-10.6c18,0,35.7,3.6,52.3,10.6c17.6,6.7,33.5,17.1,46.7,30.5l19.3,19.3l-155,155
	c15.3,7.8,32.8,10.6,49.8,8.1c17.8-2.9,34.1-11.4,46.7-24.3L403.7,285.6z M264.9,185.4c-25.7,25.3-32.2,64.2-16.2,96.5l22.4-22.4
	c10.4-10.4,21.2-21.2,32.4-32.4l33-33c10.8-10.4,19.1-18.5,24.9-24.3c-15.6-7.9-33.2-10.7-50.4-8.1
	C293.4,164.3,277.2,172.7,264.9,185.4z"/>
<path id="path47" class="st0" d="M753.5,105.2l-145.7,280l-145-280.1H525c5.8,11.2,12.4,24.1,19.9,38.6
	c7.5,14.1,14.9,28.6,22.4,43.6c7.5,14.5,14.7,28.6,21.8,42.3c7.5,13.7,13.7,25.5,18.7,35.5c6.2-12,13.3-25.7,21.2-41.1
	c8.3-15.8,16.4-31.3,24.3-46.7c7.9-15.4,15.1-29.5,21.8-42.3c6.6-13.3,11.8-23.2,15.6-29.9L753.5,105.2z"/>
<path id="path51" class="st0" d="M1288.7,285.6l39.2,39.2l-19.3,19.3c-54.3,54.7-142.6,54.9-197.3,0.6c-0.2-0.2-0.4-0.4-0.6-0.6
	c-13.3-13.1-23.7-28.7-30.5-46.1c-6.5-16.9-9.9-34.8-10-52.9c0-17.9,3.4-35.6,10-52.3c14.1-34.8,41.7-62.5,76.5-76.5
	c16.8-6.9,34.7-10.5,52.9-10.6c18,0,35.7,3.6,52.3,10.6c17.6,6.7,33.5,17.1,46.7,30.5l19.3,19.3l-155,155
	c15.3,7.8,32.8,10.6,49.8,8.1c17.8-2.9,34.1-11.4,46.7-24.3L1288.7,285.6z M1149.9,185.4c-25.7,25.3-32.2,64.2-16.2,96.5l22.4-22.4
	l32.4-32.4l33-33c10.8-10.4,19.1-18.5,24.9-24.3c-15.6-7.9-33.2-10.7-50.4-8.1C1178.4,164.3,1162.2,172.7,1149.9,185.4z"/>
<path id="path53" class="st0" d="M1638.5,105.1l-145.6,280.1l-145-280.1h62.2c5.8,11.2,12.4,24.1,19.9,38.6
	c7.5,14.1,14.9,28.6,22.4,43.6c7.5,14.5,14.7,28.6,21.8,42.3c7.5,13.7,13.7,25.5,18.7,35.5c6.2-12,13.3-25.7,21.2-41.1
	c8.3-15.8,16.4-31.3,24.3-46.7s15.1-29.5,21.8-42.3c6.6-13.3,11.8-23.2,15.6-29.9L1638.5,105.1z"/>
<g>
	<path id="path49" class="st0" d="M909.5,335.6c11.1,0.1,22.1-2,32.4-6.2c10-4.3,19-10.4,26.8-18c7.8-7.8,14-17.1,18-27.4
		c4.6-10.4,6.9-21.6,6.8-33v-84h-84c-22.6,0.3-44.2,9.2-60.4,24.9c-7.6,7.7-13.8,16.8-18,26.8c-4.2,10.3-6.3,21.3-6.2,32.4
		c-0.1,11.3,2.1,22.5,6.2,33c4.4,10.1,10.5,19.4,18,27.4c8,7.6,17.3,13.7,27.4,18C887,333.6,898.2,335.7,909.5,335.6z M1050.5,0v247
		c0.1,18.3-3.9,36.5-11.5,53.3c-7.2,16.6-17.7,31.6-30.8,44.1c-13.1,12.9-28.6,23-45.5,29.9c-53.9,22-115.8,10.3-157.8-29.9
		c-13.2-12.6-23.9-27.5-31.4-44.1c-7.3-16.8-11-34.9-10.9-53.3c-0.2-18.3,3.5-36.4,10.9-53.3c7.5-16.5,18.2-31.2,31.4-43.4
		c27.7-25.7,64.1-40.2,102-40.4h86.6V0H1050.5z"/>
	<g id="Capa_2_1_">
		<g id="svg71_1_">
			<path class="st1" d="M876.5,173.8c-10.3,4.1-19.6,10.2-27.4,18c-7.7,7.7-13.8,16.8-18,26.8c-4.2,10.3-6.3,21.3-6.2,32.4
				c0,11.3,2,22.5,6.2,33c4.4,10.1,10.5,19.4,18,27.4c8,7.6,17.3,13.7,27.4,18c10.5,4.2,21.7,6.3,33,6.2c11.1,0.1,22.1-2,32.4-6.2
				c10-4.3,19.1-10.4,26.8-18c7.8-7.8,14-17.1,18-27.4c4.6-10.4,6.9-21.7,6.8-33v-84h-84C898.2,167,886.9,169.3,876.5,173.8z"/>
		</g>
	</g>
</g>
</svg>
